<svg xmlns="http://www.w3.org/2000/svg" viewBox="0 0 272 280" width="272" height="280" role="img" aria-label="squeezeblocks — a Dots and Boxes match playing out in pixel art">
<rect width="272" height="280" fill="#000000"/>
<rect x="45" y="45" width="54" height="54" fill="#C5B0F4" opacity="0"><animate attributeName="opacity" calcMode="discrete" values="0;1;0" keyTimes="0;0.131;0.9" dur="10s" repeatCount="indefinite"/></rect>
<rect x="109" y="45" width="54" height="54" fill="#DCEEB1" opacity="0"><animate attributeName="opacity" calcMode="discrete" values="0;1;0" keyTimes="0;0.212;0.9" dur="10s" repeatCount="indefinite"/></rect>
<rect x="173" y="45" width="54" height="54" fill="#C5B0F4" opacity="0"><animate attributeName="opacity" calcMode="discrete" values="0;1;0" keyTimes="0;0.293;0.9" dur="10s" repeatCount="indefinite"/></rect>
<rect x="45" y="109" width="54" height="54" fill="#DCEEB1" opacity="0"><animate attributeName="opacity" calcMode="discrete" values="0;1;0" keyTimes="0;0.373;0.9" dur="10s" repeatCount="indefinite"/></rect>
<rect x="109" y="109" width="54" height="54" fill="#C5B0F4" opacity="0"><animate attributeName="opacity" calcMode="discrete" values="0;1;0" keyTimes="0;0.427;0.9" dur="10s" repeatCount="indefinite"/></rect>
<rect x="173" y="109" width="54" height="54" fill="#DCEEB1" opacity="0"><animate attributeName="opacity" calcMode="discrete" values="0;1;0" keyTimes="0;0.481;0.9" dur="10s" repeatCount="indefinite"/></rect>
<rect x="45" y="173" width="54" height="54" fill="#C5B0F4" opacity="0"><animate attributeName="opacity" calcMode="discrete" values="0;1;0" keyTimes="0;0.562;0.9" dur="10s" repeatCount="indefinite"/></rect>
<rect x="109" y="173" width="54" height="54" fill="#DCEEB1" opacity="0"><animate attributeName="opacity" calcMode="discrete" values="0;1;0" keyTimes="0;0.616;0.9" dur="10s" repeatCount="indefinite"/></rect>
<rect x="173" y="173" width="54" height="54" fill="#C5B0F4" opacity="0"><animate attributeName="opacity" calcMode="discrete" values="0;1;0" keyTimes="0;0.670;0.9" dur="10s" repeatCount="indefinite"/></rect>
<rect x="45" y="37" width="54" height="6" fill="#2b2b2b"/>
<rect x="45" y="37" width="54" height="6" fill="#ffffff" opacity="0"><animate attributeName="opacity" calcMode="discrete" values="0;1;0" keyTimes="0;0.050;0.9" dur="10s" repeatCount="indefinite"/></rect>
<rect x="37" y="45" width="6" height="54" fill="#2b2b2b"/>
<rect x="37" y="45" width="6" height="54" fill="#ffffff" opacity="0"><animate attributeName="opacity" calcMode="discrete" values="0;1;0" keyTimes="0;0.077;0.9" dur="10s" repeatCount="indefinite"/></rect>
<rect x="109" y="37" width="54" height="6" fill="#2b2b2b"/>
<rect x="109" y="37" width="54" height="6" fill="#ffffff" opacity="0"><animate attributeName="opacity" calcMode="discrete" values="0;1;0" keyTimes="0;0.158;0.9" dur="10s" repeatCount="indefinite"/></rect>
<rect x="101" y="45" width="6" height="54" fill="#2b2b2b"/>
<rect x="101" y="45" width="6" height="54" fill="#ffffff" opacity="0"><animate attributeName="opacity" calcMode="discrete" values="0;1;0" keyTimes="0;0.104;0.9" dur="10s" repeatCount="indefinite"/></rect>
<rect x="173" y="37" width="54" height="6" fill="#2b2b2b"/>
<rect x="173" y="37" width="54" height="6" fill="#ffffff" opacity="0"><animate attributeName="opacity" calcMode="discrete" values="0;1;0" keyTimes="0;0.239;0.9" dur="10s" repeatCount="indefinite"/></rect>
<rect x="165" y="45" width="6" height="54" fill="#2b2b2b"/>
<rect x="165" y="45" width="6" height="54" fill="#ffffff" opacity="0"><animate attributeName="opacity" calcMode="discrete" values="0;1;0" keyTimes="0;0.185;0.9" dur="10s" repeatCount="indefinite"/></rect>
<rect x="229" y="45" width="6" height="54" fill="#2b2b2b"/>
<rect x="229" y="45" width="6" height="54" fill="#ffffff" opacity="0"><animate attributeName="opacity" calcMode="discrete" values="0;1;0" keyTimes="0;0.266;0.9" dur="10s" repeatCount="indefinite"/></rect>
<rect x="45" y="101" width="54" height="6" fill="#2b2b2b"/>
<rect x="45" y="101" width="54" height="6" fill="#ffffff" opacity="0"><animate attributeName="opacity" calcMode="discrete" values="0;1;0" keyTimes="0;0.131;0.9" dur="10s" repeatCount="indefinite"/></rect>
<rect x="37" y="109" width="6" height="54" fill="#2b2b2b"/>
<rect x="37" y="109" width="6" height="54" fill="#ffffff" opacity="0"><animate attributeName="opacity" calcMode="discrete" values="0;1;0" keyTimes="0;0.320;0.9" dur="10s" repeatCount="indefinite"/></rect>
<rect x="109" y="101" width="54" height="6" fill="#2b2b2b"/>
<rect x="109" y="101" width="54" height="6" fill="#ffffff" opacity="0"><animate attributeName="opacity" calcMode="discrete" values="0;1;0" keyTimes="0;0.212;0.9" dur="10s" repeatCount="indefinite"/></rect>
<rect x="101" y="109" width="6" height="54" fill="#2b2b2b"/>
<rect x="101" y="109" width="6" height="54" fill="#ffffff" opacity="0"><animate attributeName="opacity" calcMode="discrete" values="0;1;0" keyTimes="0;0.347;0.9" dur="10s" repeatCount="indefinite"/></rect>
<rect x="173" y="101" width="54" height="6" fill="#2b2b2b"/>
<rect x="173" y="101" width="54" height="6" fill="#ffffff" opacity="0"><animate attributeName="opacity" calcMode="discrete" values="0;1;0" keyTimes="0;0.293;0.9" dur="10s" repeatCount="indefinite"/></rect>
<rect x="165" y="109" width="6" height="54" fill="#2b2b2b"/>
<rect x="165" y="109" width="6" height="54" fill="#ffffff" opacity="0"><animate attributeName="opacity" calcMode="discrete" values="0;1;0" keyTimes="0;0.400;0.9" dur="10s" repeatCount="indefinite"/></rect>
<rect x="229" y="109" width="6" height="54" fill="#2b2b2b"/>
<rect x="229" y="109" width="6" height="54" fill="#ffffff" opacity="0"><animate attributeName="opacity" calcMode="discrete" values="0;1;0" keyTimes="0;0.454;0.9" dur="10s" repeatCount="indefinite"/></rect>
<rect x="45" y="165" width="54" height="6" fill="#2b2b2b"/>
<rect x="45" y="165" width="54" height="6" fill="#ffffff" opacity="0"><animate attributeName="opacity" calcMode="discrete" values="0;1;0" keyTimes="0;0.373;0.9" dur="10s" repeatCount="indefinite"/></rect>
<rect x="37" y="173" width="6" height="54" fill="#2b2b2b"/>
<rect x="37" y="173" width="6" height="54" fill="#ffffff" opacity="0"><animate attributeName="opacity" calcMode="discrete" values="0;1;0" keyTimes="0;0.508;0.9" dur="10s" repeatCount="indefinite"/></rect>
<rect x="109" y="165" width="54" height="6" fill="#2b2b2b"/>
<rect x="109" y="165" width="54" height="6" fill="#ffffff" opacity="0"><animate attributeName="opacity" calcMode="discrete" values="0;1;0" keyTimes="0;0.427;0.9" dur="10s" repeatCount="indefinite"/></rect>
<rect x="101" y="173" width="6" height="54" fill="#2b2b2b"/>
<rect x="101" y="173" width="6" height="54" fill="#ffffff" opacity="0"><animate attributeName="opacity" calcMode="discrete" values="0;1;0" keyTimes="0;0.535;0.9" dur="10s" repeatCount="indefinite"/></rect>
<rect x="173" y="165" width="54" height="6" fill="#2b2b2b"/>
<rect x="173" y="165" width="54" height="6" fill="#ffffff" opacity="0"><animate attributeName="opacity" calcMode="discrete" values="0;1;0" keyTimes="0;0.481;0.9" dur="10s" repeatCount="indefinite"/></rect>
<rect x="165" y="173" width="6" height="54" fill="#2b2b2b"/>
<rect x="165" y="173" width="6" height="54" fill="#ffffff" opacity="0"><animate attributeName="opacity" calcMode="discrete" values="0;1;0" keyTimes="0;0.589;0.9" dur="10s" repeatCount="indefinite"/></rect>
<rect x="229" y="173" width="6" height="54" fill="#2b2b2b"/>
<rect x="229" y="173" width="6" height="54" fill="#ffffff" opacity="0"><animate attributeName="opacity" calcMode="discrete" values="0;1;0" keyTimes="0;0.643;0.9" dur="10s" repeatCount="indefinite"/></rect>
<rect x="45" y="229" width="54" height="6" fill="#2b2b2b"/>
<rect x="45" y="229" width="54" height="6" fill="#ffffff" opacity="0"><animate attributeName="opacity" calcMode="discrete" values="0;1;0" keyTimes="0;0.562;0.9" dur="10s" repeatCount="indefinite"/></rect>
<rect x="109" y="229" width="54" height="6" fill="#2b2b2b"/>
<rect x="109" y="229" width="54" height="6" fill="#ffffff" opacity="0"><animate attributeName="opacity" calcMode="discrete" values="0;1;0" keyTimes="0;0.616;0.9" dur="10s" repeatCount="indefinite"/></rect>
<rect x="173" y="229" width="54" height="6" fill="#2b2b2b"/>
<rect x="173" y="229" width="54" height="6" fill="#ffffff" opacity="0"><animate attributeName="opacity" calcMode="discrete" values="0;1;0" keyTimes="0;0.670;0.9" dur="10s" repeatCount="indefinite"/></rect>
<rect x="36" y="36" width="8" height="8" fill="#ffffff"/>
<rect x="100" y="36" width="8" height="8" fill="#ffffff"/>
<rect x="164" y="36" width="8" height="8" fill="#ffffff"/>
<rect x="228" y="36" width="8" height="8" fill="#ffffff"/>
<rect x="36" y="100" width="8" height="8" fill="#ffffff"/>
<rect x="100" y="100" width="8" height="8" fill="#ffffff"/>
<rect x="164" y="100" width="8" height="8" fill="#ffffff"/>
<rect x="228" y="100" width="8" height="8" fill="#ffffff"/>
<rect x="36" y="164" width="8" height="8" fill="#ffffff"/>
<rect x="100" y="164" width="8" height="8" fill="#ffffff"/>
<rect x="164" y="164" width="8" height="8" fill="#ffffff"/>
<rect x="228" y="164" width="8" height="8" fill="#ffffff"/>
<rect x="36" y="228" width="8" height="8" fill="#ffffff"/>
<rect x="100" y="228" width="8" height="8" fill="#ffffff"/>
<rect x="164" y="228" width="8" height="8" fill="#ffffff"/>
<rect x="228" y="228" width="8" height="8" fill="#ffffff"/>
</svg>
